<svg xmlns="http://www.w3.org/2000/svg" width="0" height="0" class="hidden">
  <!-- <symbol enable-background="new 0 0 512 512" id="google" version="1.1"
    xml:space="preserve" xmlns="http://www.w3.org/2000/svg"
    xmlns:xlink="http://www.w3.org/1999/xlink" viewBox="0 0 512 512">
    <g>
      <path
        d="M42.4,145.9c15.5-32.3,37.4-59.6,65-82.3c37.4-30.9,80.3-49.5,128.4-55.2c56.5-6.7,109.6,4,158.7,33.4   c12.2,7.3,23.6,15.6,34.5,24.6c2.7,2.2,2.4,3.5,0.1,5.7c-22.3,22.2-44.6,44.4-66.7,66.8c-2.6,2.6-4,2.4-6.8,0.3   c-64.8-49.9-159.3-36.4-207.6,29.6c-8.5,11.6-15.4,24.1-20.2,37.7c-0.4,1.2-1.2,2.3-1.8,3.5c-12.9-9.8-25.9-19.6-38.7-29.5   C72.3,169,57.3,157.5,42.4,145.9z"
        fill="#E94335"></path>
      <path
        d="M126,303.8c4.3,9.5,7.9,19.4,13.3,28.3c22.7,37.2,55.1,61.1,97.8,69.6c38.5,7.7,75.5,2.5,110-16.8   c1.2-0.6,2.4-1.2,3.5-1.8c0.6,0.6,1.1,1.3,1.7,1.8c25.8,20,51.7,40,77.5,60c-12.4,12.3-26.5,22.2-41.5,30.8   c-43.5,24.8-90.6,34.8-140.2,31C186.3,501.9,133,477.5,89,433.5c-19.3-19.3-35.2-41.1-46.7-66c10.7-8.2,21.4-16.3,32.1-24.5   C91.6,329.9,108.8,316.9,126,303.8z"
        fill="#34A853"></path>
      <path
        d="M429.9,444.9c-25.8-20-51.7-40-77.5-60c-0.6-0.5-1.2-1.2-1.7-1.8c8.9-6.9,18-13.6,25.3-22.4   c12.2-14.6,20.3-31.1,24.5-49.6c0.5-2.3,0.1-3.1-2.2-3c-1.2,0.1-2.3,0-3.5,0c-40.8,0-81.7-0.1-122.5,0.1c-4.5,0-5.5-1.2-5.4-5.5   c0.2-29,0.2-58,0-87c0-3.7,1-4.7,4.7-4.7c74.8,0.1,149.6,0.1,224.5,0c3.2,0,4.5,0.8,5.3,4.2c6.1,27.5,5.7,55.1,2,82.9   c-3,22.2-8.4,43.7-16.7,64.5c-12.3,30.7-30.4,57.5-54.2,80.5C431.6,443.8,430.7,444.3,429.9,444.9z"
        fill="#4285F3"></path>
      <path
        d="M126,303.8c-17.2,13.1-34.4,26.1-51.6,39.2c-10.7,8.1-21.4,16.3-32.1,24.5C34,352.1,28.6,335.8,24.2,319   c-8.4-32.5-9.7-65.5-5.1-98.6c3.6-26,11.1-51,23.2-74.4c15,11.5,29.9,23.1,44.9,34.6c12.9,9.9,25.8,19.7,38.7,29.5   c-2.2,10.7-5.3,21.2-6.3,32.2c-1.8,20,0.1,39.5,5.8,58.7C125.8,301.8,125.9,302.8,126,303.8z"
        fill="#FABB06"></path>
    </g>
  </symbol> -->

  <!-- <symbol version="1.1" xmlns="http://www.w3.org/2000/svg"
    preserveAspectRatio="xMidYMid" viewBox="0 0 256 256" id="facebook">
    <title>Facebook</title>
    <g>
      <path
        d="M256,128 C256,57.3075 198.6925,0 128,0 C57.3075,0 0,57.3075 0,128 C0,191.8885 46.80775,244.8425 108,254.445 L108,165 L75.5,165 L75.5,128 L108,128 L108,99.8 C108,67.72 127.1095,50 156.3475,50 C170.35175,50 185,52.5 185,52.5 L185,84 L168.8595,84 C152.95875,84 148,93.86675 148,103.98925 L148,128 L183.5,128 L177.825,165 L148,165 L148,254.445 C209.19225,244.8425 256,191.8885 256,128"
        fill="#1877F2"></path>
      <path
        d="M177.825,165 L183.5,128 L148,128 L148,103.98925 C148,93.86675 152.95875,84 168.8595,84 L185,84 L185,52.5 C185,52.5 170.35175,50 156.3475,50 C127.1095,50 108,67.72 108,99.8 L108,128 L75.5,128 L75.5,165 L108,165 L108,254.445 C114.51675,255.4675 121.196,256 128,256 C134.804,256 141.48325,255.4675 148,254.445 L148,165 L177.825,165"
        fill="#FFFFFF"></path>
    </g>
  </symbol> -->

  <symbol xmlns="http://www.w3.org/2000/svg" viewBox="0 0 24 24" id="github">
    <title>GitHub dark icon</title>
    <path
      d="M12 .297c-6.63 0-12 5.373-12 12 0 5.303 3.438 9.8 8.205 11.385.6.113.82-.258.82-.577 0-.285-.01-1.04-.015-2.04-3.338.724-4.042-1.61-4.042-1.61C4.422 18.07 3.633 17.7 3.633 17.7c-1.087-.744.084-.729.084-.729 1.205.084 1.838 1.236 1.838 1.236 1.07 1.835 2.809 1.305 3.495.998.108-.776.417-1.305.76-1.605-2.665-.3-5.466-1.332-5.466-5.93 0-1.31.465-2.38 1.235-3.22-.135-.303-.54-1.523.105-3.176 0 0 1.005-.322 3.3 1.23.96-.267 1.98-.399 3-.405 1.02.006 2.04.138 3 .405 2.28-1.552 3.285-1.23 3.285-1.23.645 1.653.24 2.873.12 3.176.765.84 1.23 1.91 1.23 3.22 0 4.61-2.805 5.625-5.475 5.92.42.36.81 1.096.81 2.22 0 1.606-.015 2.896-.015 3.286 0 .315.21.69.825.57C20.565 22.092 24 17.592 24 12.297c0-6.627-5.373-12-12-12">
    </path>
  </symbol>

  <symbol xmlns="http://www.w3.org/2000/svg" id="avatar" viewBox="0 0 24 24"
    fill="none">
    <path
      d="M12,12A6,6,0,1,0,6,6,6.006,6.006,0,0,0,12,12ZM12,2A4,4,0,1,1,8,6,4,4,0,0,1,12,2Z"
      stroke="aliceblue" fill="aquamarine">
    </path>
    <path
      d="M12,14a9.01,9.01,0,0,0-9,9,1,1,0,0,0,2,0,7,7,0,0,1,14,0,1,1,0,0,0,2,0A9.01,9.01,0,0,0,12,14Z"
      stroke="aliceblue" fill="aquamarine">
    </path>

  </symbol>

</svg>